<?xml version="1.0" standalone="no"?>
<!DOCTYPE svg PUBLIC "-//W3C//DTD SVG 20010904//EN"
 "http://www.w3.org/TR/2001/REC-SVG-20010904/DTD/svg10.dtd">
<svg version="1.0" xmlns="http://www.w3.org/2000/svg"
 width="180.000000pt" height="180.000000pt" viewBox="0 0 180.000000 180.000000"
 preserveAspectRatio="xMidYMid meet">
<metadata>
Created by potrace 1.11, written by Peter Selinger 2001-2013
</metadata>
<g transform="translate(0.000000,180.000000) scale(0.100000,-0.100000)"
fill="#000000" stroke="none">
<path d="M312 1788 c-15 -15 -16 -35 -2 -40 6 -2 0 -19 -13 -38 -14 -19 -28
-46 -32 -59 -6 -21 -5 -23 15 -18 l22 6 -23 -26 c-17 -18 -20 -27 -11 -30 8
-3 5 -14 -13 -35 -30 -36 -32 -52 -5 -45 11 3 20 2 20 -2 0 -5 -9 -16 -20 -26
-21 -19 -26 -41 -11 -47 6 -1 13 -25 16 -53 3 -27 10 -74 16 -104 13 -76 12
-79 -14 -74 -13 3 -29 -2 -35 -10 -15 -18 -42 -153 -42 -209 0 -49 49 -145
102 -202 33 -34 42 -38 72 -33 l34 5 22 -81 c26 -97 32 -105 110 -174 l61 -53
-81 0 c-167 0 -239 -70 -240 -232 0 -42 4 -80 10 -83 5 -3 10 -33 10 -66 0
-52 2 -59 20 -59 17 0 20 7 20 51 l0 52 38 -7 c20 -3 49 -6 65 -6 25 0 27 -3
27 -45 0 -38 3 -45 20 -45 18 0 20 7 20 61 l0 61 71 79 71 79 32 -25 c63 -48
104 -59 216 -59 119 0 166 13 217 57 l34 30 80 -79 79 -79 0 -62 c0 -49 3 -63
15 -63 11 0 15 11 15 40 0 38 1 39 38 45 20 3 49 8 65 10 26 4 27 3 27 -45 0
-43 3 -50 20 -50 18 0 20 7 20 60 0 44 4 61 16 68 14 8 16 22 12 85 -6 96 -37
161 -96 202 -37 25 -55 30 -127 35 l-84 5 62 51 c62 51 63 53 81 130 27 122
22 113 62 107 31 -5 39 -1 72 34 21 22 53 69 72 105 l34 66 -12 98 c-16 125
-27 149 -70 148 l-32 -2 6 82 c4 44 15 106 26 136 l18 54 -27 23 -28 22 33 1
c17 0 32 4 32 9 0 5 -19 26 -42 47 -23 21 -35 35 -25 31 9 -4 24 -10 32 -13 8
-3 15 -1 15 6 0 14 -51 89 -92 136 -24 27 -26 34 -13 34 10 0 15 6 13 18 -3
16 -39 17 -554 20 -419 2 -553 -1 -562 -10z m168 -211 c0 -26 58 -152 91 -197
13 -16 29 -30 36 -30 16 0 16 -3 -3 54 -9 26 -14 49 -12 52 3 2 22 -21 43 -52
37 -54 199 -214 216 -214 18 0 7 24 -51 112 -60 92 -74 122 -43 97 9 -8 74
-44 146 -80 73 -37 125 -69 118 -73 -6 -4 -11 -16 -11 -27 0 -22 24 -24 60 -5
20 12 29 12 50 1 43 -22 70 -27 70 -14 0 6 -8 18 -17 25 -16 12 -15 13 15 14
18 0 49 -7 69 -15 45 -19 46 -19 33 5 -10 18 -8 20 29 20 38 0 40 -2 46 -34 4
-19 5 -64 3 -100 -3 -63 -2 -66 20 -66 12 0 22 -2 22 -5 0 -12 -100 -458 -105
-465 -9 -14 -206 -174 -270 -219 -58 -40 -59 -41 -146 -41 -48 0 -98 4 -111 9
-13 5 -75 53 -138 106 -63 54 -122 102 -131 109 -8 6 -23 23 -33 37 -18 29
-77 239 -100 359 -8 41 -18 83 -22 93 -6 16 -2 18 26 15 17 -1 32 0 32 5 0 4
-6 39 -13 78 -11 63 -11 77 5 123 15 43 16 59 7 92 -19 68 -13 124 19 192 30
64 50 79 50 39z m-185 -454 c21 -51 18 -58 -9 -26 -26 30 -38 26 -51 -14 -5
-19 -1 -25 19 -33 20 -7 26 -16 26 -40 0 -16 4 -30 9 -30 6 0 7 -16 4 -35 -4
-24 0 -43 13 -62 10 -16 18 -35 19 -43 0 -9 8 -14 21 -13 25 3 41 -36 21 -49
-34 -22 -72 11 -123 106 l-38 69 13 84 c6 46 16 94 21 108 12 33 36 23 55 -22z
m1253 -67 l15 -96 -38 -76 c-49 -96 -87 -128 -124 -105 -20 13 -5 48 22 47 15
-1 22 5 23 20 1 11 9 32 19 47 12 18 15 37 11 57 -3 17 -1 30 4 30 6 0 10 13
10 28 0 21 7 32 24 40 21 9 23 15 17 39 -11 41 -33 39 -59 -4 -12 -21 -22 -31
-22 -22 0 9 9 28 20 42 11 14 20 32 20 40 0 18 21 28 33 17 5 -4 16 -51 25
-104z m-124 -168 l-16 -23 5 25 c3 14 9 43 14 65 l8 40 3 -42 c2 -28 -3 -51
-14 -65z m-1080 39 c5 -27 4 -37 -3 -32 -6 3 -11 22 -11 42 0 44 5 41 14 -10z"/>
<path d="M545 1276 c-34 -15 -75 -52 -75 -66 0 -5 19 0 43 10 58 27 119 25
179 -5 63 -32 70 -31 66 2 -2 18 -14 33 -36 46 -42 25 -137 32 -177 13z"/>
<path d="M660 1131 c0 -5 21 -14 46 -20 50 -13 73 -7 33 7 -45 17 -79 22 -79
13z"/>
<path d="M1047 1124 c-16 -9 -26 -18 -24 -21 8 -8 77 20 71 29 -7 11 -14 10
-47 -8z"/>
<path d="M534 1113 c-6 -4 -16 -18 -22 -29 -11 -21 -10 -22 31 -12 23 5 77 8
120 5 42 -3 77 -2 77 2 0 20 -184 50 -206 34z"/>
<path d="M1088 1104 c-27 -8 -48 -18 -48 -22 0 -4 53 -7 119 -7 l118 0 -15 23
c-12 19 -23 22 -71 21 -31 0 -77 -7 -103 -15z"/>
<path d="M826 955 c-12 -13 -28 -41 -35 -62 -7 -21 -15 -43 -17 -50 -3 -6 15
-25 41 -43 l45 -31 40 22 c47 26 40 50 -9 30 -22 -10 -34 -10 -50 -1 -25 13
-25 11 -4 55 9 19 24 35 32 35 33 0 43 15 30 43 -15 34 -43 35 -73 2z"/>
<path d="M670 722 c0 -2 11 -23 25 -47 24 -41 29 -44 89 -54 78 -14 166 -14
201 -1 29 11 112 77 119 95 3 8 -57 11 -215 11 -120 -1 -219 -2 -219 -4z m380
-23 c0 -4 -8 -10 -18 -13 -9 -3 -22 -16 -27 -28 -9 -20 -20 -24 -80 -28 -59
-5 -177 9 -190 21 -2 2 -6 15 -10 29 l-6 25 166 1 c91 0 165 -3 165 -7z"/>
<path d="M824 565 c11 -8 29 -15 41 -15 12 0 30 7 41 15 17 13 14 14 -41 14
-55 0 -58 -1 -41 -14z"/>
</g>
</svg>
